<?xml version="1.0" standalone="no"?>
<!DOCTYPE svg PUBLIC "-//W3C//DTD SVG 20010904//EN"
 "http://www.w3.org/TR/2001/REC-SVG-20010904/DTD/svg10.dtd">
<svg version="1.0" xmlns="http://www.w3.org/2000/svg"
 width="225.000000pt" height="225.000000pt" viewBox="0 0 225.000000 225.000000"
 preserveAspectRatio="xMidYMid meet">
<metadata>
Created by potrace 1.14, written by Peter Selinger 2001-2017
</metadata>
<g transform="translate(0.000000,225.000000) scale(0.100000,-0.100000)"
fill="#000000" stroke="none">
<path d="M47 1319 c-65 -38 -58 -197 9 -228 36 -16 100 -14 118 5 24 23 20 27
-19 20 -20 -4 -44 -4 -55 -1 -38 12 -54 121 -24 164 15 20 23 23 66 19 40 -4
48 -2 44 9 -4 8 -6 17 -6 19 0 9 -116 3 -133 -7z"/>
<path d="M241 1212 c-22 -66 -41 -122 -41 -125 0 -4 9 -7 19 -7 13 0 21 9 26
30 6 29 9 30 60 30 49 0 53 -2 65 -30 9 -22 19 -30 37 -30 30 0 29 8 -24 153
-35 95 -37 97 -68 97 -32 0 -32 0 -74 -118z m79 43 c5 -14 13 -37 16 -50 6
-23 3 -25 -31 -25 -26 0 -36 4 -32 13 2 6 10 29 18 50 7 20 14 37 16 37 2 0 8
-11 13 -25z"/>
<path d="M450 1205 l0 -125 30 0 c30 0 30 1 30 55 l0 55 53 0 c40 0 58 5 70
18 21 23 22 71 1 100 -14 20 -24 22 -100 22 l-84 0 0 -125z m140 81 c6 -8 10
-25 8 -38 -2 -19 -10 -23 -45 -26 l-43 -3 0 40 c0 40 1 41 34 41 18 0 39 -7
46 -14z"/>
<path d="M705 1306 c-28 -28 -40 -80 -32 -138 8 -56 34 -80 96 -86 46 -4 53
-2 81 26 27 28 30 36 30 97 0 60 -3 69 -29 96 -39 39 -109 41 -146 5z m105
-21 c33 -39 18 -158 -21 -170 -37 -12 -59 21 -59 87 0 33 5 68 10 79 13 22 52
25 70 4z"/>
<path d="M920 1211 l0 -121 70 0 c56 0 74 4 89 19 37 37 37 145 2 201 -7 10
-33 16 -85 18 l-76 4 0 -121z m116 91 c21 -14 34 -51 34 -99 0 -67 -20 -93
-71 -93 l-39 0 0 93 c0 52 3 97 7 100 9 9 55 9 69 -1z"/>
<path d="M1166 1305 c-50 -54 -41 -181 14 -210 62 -32 140 -9 159 46 23 66 4
156 -37 178 -12 6 -41 11 -67 11 -36 0 -51 -5 -69 -25z m108 -21 c25 -24 22
-128 -4 -154 -24 -24 -30 -24 -56 -6 -16 12 -19 27 -19 85 0 53 4 74 15 81 22
14 47 12 64 -6z"/>
<path d="M1380 1205 l0 -125 24 0 c23 0 25 4 28 53 l3 52 55 5 c30 3 61 9 68
13 18 12 15 92 -4 111 -11 12 -36 16 -95 16 l-79 0 0 -125z m135 55 c0 -34 -1
-35 -42 -38 l-43 -3 0 41 0 41 43 -3 c41 -3 42 -4 42 -38z"/>
<path d="M1600 1205 l0 -125 85 0 c69 0 85 3 85 15 0 12 -13 15 -55 15 l-55 0
0 45 0 45 45 0 c33 0 45 4 45 15 0 11 -12 15 -45 15 -45 0 -45 0 -45 35 l0 35
55 0 c42 0 55 3 55 15 0 12 -16 15 -85 15 l-85 0 0 -125z"/>
<path d="M1800 1205 l0 -125 25 0 c24 0 25 3 25 60 0 33 3 60 8 60 4 0 22 -27
40 -60 29 -52 37 -60 62 -60 37 0 37 7 0 56 -33 43 -38 64 -15 64 8 0 24 9 36
21 16 16 19 27 14 52 -10 48 -29 57 -117 57 l-78 0 0 -125z m135 55 c0 -34 -1
-35 -42 -38 l-43 -3 0 41 0 41 43 -3 c41 -3 42 -4 42 -38z"/>
<path d="M2085 1318 c-76 -205 -85 -238 -66 -238 12 0 23 11 30 30 9 28 13 30
63 30 50 0 54 -2 65 -30 9 -23 17 -30 38 -30 17 0 26 4 23 13 -3 6 -22 63 -44
125 l-39 112 -33 0 c-18 0 -35 -6 -37 -12z m43 -75 c5 -16 13 -36 17 -45 6
-15 1 -18 -30 -18 -34 0 -37 2 -30 23 3 12 9 32 12 45 7 30 19 28 31 -5z"/>
<path d="M1760 975 c0 -45 0 -45 34 -45 38 0 43 7 38 56 -4 31 -7 34 -38 34
-34 0 -34 -1 -34 -45z m53 20 c1 -5 -6 -11 -15 -13 -11 -2 -18 3 -18 13 0 17
30 18 33 0z m5 -42 c2 -8 -5 -13 -17 -13 -12 0 -21 6 -21 16 0 18 31 15 38 -3z"/>
<path d="M1850 1011 c0 -6 5 -13 10 -16 6 -3 10 -19 10 -36 0 -16 5 -29 10
-29 6 0 10 7 10 15 0 9 7 30 17 48 15 30 15 31 -1 18 -13 -11 -20 -11 -28 -3
-14 14 -28 15 -28 3z"/>
<path d="M1985 975 l0 -45 35 1 c23 1 28 3 13 6 -27 5 -31 30 -5 36 16 4 16 5
0 6 -26 2 -22 29 5 34 15 3 10 5 -13 6 l-35 1 0 -45z"/>
<path d="M2060 975 l0 -45 38 1 c30 2 32 3 10 6 -25 4 -28 8 -28 44 0 21 -4
39 -10 39 -5 0 -10 -20 -10 -45z"/>
<path d="M2140 975 c0 -29 4 -45 13 -45 8 0 11 14 9 45 -2 25 -8 45 -13 45 -5
0 -9 -20 -9 -45z"/>
<path d="M2180 1002 c0 -11 12 -24 26 -30 28 -14 24 -32 -9 -32 -16 0 -18 -3
-9 -12 9 -9 18 -9 37 0 32 15 30 43 -3 57 -28 12 -28 22 1 28 16 3 13 5 -10 6
-26 1 -33 -3 -33 -17z"/>
</g>
</svg>
