<?xml version="1.0" standalone="no"?>
<!DOCTYPE svg PUBLIC "-//W3C//DTD SVG 20010904//EN"
 "http://www.w3.org/TR/2001/REC-SVG-20010904/DTD/svg10.dtd">
<svg version="1.0" xmlns="http://www.w3.org/2000/svg"
 width="512.000000pt" height="512.000000pt" viewBox="0 0 512.000000 512.000000"
 preserveAspectRatio="xMidYMid meet">
<metadata>
Created by potrace 1.14, written by Peter Selinger 2001-2017
</metadata>
<g transform="translate(0.000000,512.000000) scale(0.100000,-0.100000)"
fill="#000000" stroke="none">
<path d="M0 2560 l0 -2560 2560 0 2560 0 0 2560 0 2560 -2560 0 -2560 0 0
-2560z m3572 1185 c461 -97 730 -585 565 -1024 -66 -177 -201 -330 -364 -414
-160 -82 -142 -80 -726 -86 l-519 -6 -24 -28 c-29 -34 -31 -66 -4 -100 l21
-26 697 -3 697 -3 61 -28 c156 -72 240 -239 200 -397 -21 -83 -73 -159 -139
-204 -97 -66 -96 -66 -837 -66 -366 0 -698 5 -737 10 -266 35 -494 204 -607
452 -174 380 3 843 388 1018 139 63 134 63 692 69 485 6 513 7 533 25 32 29
29 88 -5 115 -26 21 -36 21 -499 21 -507 0 -567 -4 -710 -53 -128 -44 -238
-111 -339 -206 -132 -126 -207 -259 -271 -481 -4 -14 -10 -176 -14 -360 l-6
-335 -31 -65 c-17 -36 -51 -84 -75 -108 -190 -186 -509 -94 -575 168 -25 98
-15 626 14 790 76 418 314 792 662 1041 206 147 445 243 705 284 122 20 1156
20 1247 0z"/>
</g>
</svg>
